<svg version="1" xmlns="http://www.w3.org/2000/svg" width="469.333" height="469.333" viewBox="0 0 352.000000 352.000000"><path d="M62.4 80.6C47 96.4 31.6 112.3 28.1 115.9c-3.5 3.6-9 9.3-12.3 12.7l-5.9 6.1 3.8 4.5c2.1 2.4 6.1 7.1 8.8 10.3 2.8 3.2 7.7 9.1 11 13 10.5 12.6 65.9 78 66.5 78.5.3.3 5.2 6.1 11 13 5.7 6.9 10.7 12.7 11 13 .3.3 4.1 4.8 8.5 10s8.2 9.7 8.5 10c.3.3 2.5 3 5 6s5.3 6.4 6.3 7.5c1 1.1 6.6 7.7 12.5 14.8l10.7 12.7 2.5-2.8c1.4-1.5 4.8-5.4 7.5-8.6 2.8-3.3 6.4-7.5 8.1-9.5 1.8-2 8-9.2 13.9-16.1 5.9-6.9 11.9-13.9 13.4-15.5 1.4-1.7 10.7-12.4 20.5-24 9.9-11.6 18.4-21.5 19-22 .6-.6 3.6-3.9 6.6-7.5 3-3.6 6.7-7.8 8.1-9.5 1.5-1.6 8.8-10.2 16.4-19 7.5-8.8 14.9-17.4 16.3-19 1.5-1.7 6.9-8 12.1-14 5.2-6.1 11.9-13.9 15-17.4 3.1-3.5 5.9-6.9 6.3-7.5.5-.8-14-15.9-40.6-42.4L257.2 52H90.3L62.4 80.6z"/></svg>